<svg width="400" height="400" xmlns="http://www.w3.org/2000/svg"><g fill-rule="evenodd"><path d="M38.629 38.629c-1.114 1.113-.944 321.456.171 322.571 1.11 1.11 320.329 1.286 321.911.177l.889-.622V199.791c0-158.73-.011-160.969-.774-161.377-1.44-.771-321.425-.558-322.197.215m137.545 121.175c7.581.796 14.014 3.184 16.864 6.26 9.772 10.542 6.867 28.543-5.734 35.537-1.902 1.056-2.369 1.956-1.681 3.242.257.48 3.972 6.644 8.256 13.697 11.545 19.009 11.553 19.06 3.121 19.06-5.731 0-5.057.75-15.237-16.945-8.92-15.503-7.833-14.455-14.984-14.455-7.52 0-6.779-1.604-6.779 14.669 0 16.922.076 16.722-6.34 16.729-6.035.006-5.66 2.589-5.66-38.998 0-38.04-.041-37.299 2.152-38.636 1.637-.998 17.136-1.093 26.022-.16m46.79-.045c2.088.873 2.025-.076 2.236 33.68.164 26.347.298 32.156.749 32.7.491.591 1.999.662 14.2.671 18.039.012 18.294.083 18.58 5.135.329 5.818.977 5.655-22.529 5.655-20.259 0-21.172-.08-22.168-1.94-.3-.561-.432-11.89-.432-37.18v-36.372l.855-1.087c1.459-1.854 5.616-2.471 8.509-1.262M160.48 170.48c-.742.742-.678 23.497.069 24.518 1.385 1.894 15.934.87 20.238-1.423 8.029-4.28 7.72-19.276-.453-21.922-4.504-1.459-18.728-2.299-19.854-1.173" fill="#2c84bb"/><path d="M28.357 23.991c-2.696.35-2.965.499-3.86 2.134-.999 1.827-1.095 346.103-.097 348.039.33.64 1.108 1.54 1.729 2l1.13.836h172.87c170.869 0 172.886-.009 174.165-.782.711-.431 1.611-1.421 2-2.2 1.007-2.021 1.112-345.42.106-347.398-.33-.649-1.23-1.549-2-2l-1.4-.82-171.2-.05c-94.16-.028-172.209.081-173.443.241m333.592 12.451c.697.243 1.444.771 1.659 1.174.813 1.518.507 324.153-.308 325.159-.385.476-1.42 1.031-2.3 1.235-1.792.415-320.431.457-322.4.043-2.852-.601-2.599 15.342-2.599-163.893C36 32.567 35.95 37.335 37.721 36.479c1.272-.615 322.465-.651 324.228-.037" fill="#030405"/><path d="M151.756 161.592c-1.516.612-1.555 1.435-1.677 35.608-.147 41.195-.426 38.405 3.85 38.394 3.719-.01 3.445 1.109 3.671-14.97l.2-14.207 1.109-1.108c2.035-2.035 13.637-1.874 15.901.219.637.59 4.689 7.192 9.004 14.672 9.197 15.942 8.74 15.4 12.994 15.4 5.382 0 5.748 1.208-5.015-16.597-10.505-17.38-10.244-16.568-6.046-18.836 6.951-3.756 11.053-10.877 11.053-19.189 0-11.86-7.346-18.201-22.447-19.375-6.067-.471-21.439-.479-22.597-.011m65.847-.035c-2.049.57-2.005-.295-1.901 37.575.096 34.455.117 35.347.874 35.9.961.703 37.738.856 39.033.163.844-.452 1.409-2.679 1.003-3.958-.655-2.062-.463-2.037-15.341-2.039-8.565-.002-14.457-.165-15.403-.428-2.774-.77-2.667.605-2.674-34.457-.003-17.222-.142-31.527-.308-31.788-.695-1.093-3.19-1.55-5.283-.968m-43.148 6.846c1.901.217 4.63.758 6.065 1.201 10.659 3.293 11.108 20.974.662 26.058-5.848 2.847-21.367 3.257-22.885.606-.787-1.374-.705-25.893.089-26.851 1.21-1.459 8.292-1.906 16.069-1.014" fill="#fff"/><path d="M37.721 36.479c-1.771.856-1.721-3.912-1.72 163.681 0 179.235-.253 163.292 2.599 163.893 1.969.414 320.608.372 322.4-.043.88-.204 1.915-.759 2.3-1.235.815-1.006 1.121-323.641.308-325.159-.215-.403-.962-.931-1.659-1.174-1.763-.614-322.956-.578-324.228.037m323.105 1.935c.763.408.774 2.647.774 161.377v160.964l-.889.622c-1.582 1.109-320.801.933-321.911-.177-1.115-1.115-1.285-321.458-.171-322.571.772-.773 320.757-.986 322.197-.215" fill="#2c84bb"/><path d="M150.152 159.964c-2.193 1.337-2.152.596-2.152 38.636 0 41.587-.375 39.004 5.66 38.998 6.416-.007 6.34.193 6.34-16.729 0-16.273-.741-14.669 6.779-14.669 7.151 0 6.064-1.048 14.984 14.455C191.943 238.35 191.269 237.6 197 237.6c8.432 0 8.424-.051-3.121-19.06-4.284-7.053-7.999-13.217-8.256-13.697-.688-1.286-.221-2.186 1.681-3.242 12.601-6.994 15.506-24.995 5.734-35.537-2.85-3.076-9.283-5.464-16.864-6.26-8.886-.933-24.385-.838-26.022.16m66.003-.372c-.464.188-1.229.831-1.7 1.429l-.855 1.087v36.372c0 25.29.132 36.619.432 37.18.996 1.86 1.909 1.94 22.168 1.94 23.506 0 22.858.163 22.529-5.655-.286-5.052-.541-5.123-18.58-5.135-12.201-.009-13.709-.08-14.2-.671-.451-.544-.585-6.353-.749-32.7-.11-17.622-.357-32.282-.549-32.58-.906-1.405-6.2-2.194-8.496-1.267m-41.802 2.011c15.101 1.174 22.447 7.515 22.447 19.375 0 8.312-4.102 15.433-11.053 19.189-4.198 2.268-4.459 1.456 6.046 18.836 10.763 17.805 10.397 16.597 5.015 16.597-4.254 0-3.797.542-12.994-15.4-4.315-7.48-8.367-14.082-9.004-14.672-2.264-2.093-13.866-2.254-15.901-.219l-1.109 1.108-.2 14.207c-.226 16.079.048 14.96-3.671 14.97-4.276.011-3.997 2.801-3.85-38.394.122-34.173.161-34.996 1.677-35.608 1.158-.468 16.53-.46 22.597.011m47.113.022c1.766.671 1.721-.163 1.728 32.688.007 35.062-.1 33.687 2.674 34.457.946.263 6.838.426 15.403.428 14.878.002 14.686-.023 15.341 2.039.406 1.279-.159 3.506-1.003 3.958-1.295.693-38.072.54-39.033-.163-.981-.717-1.435-70.322-.47-72.215.737-1.447 3.23-2.002 5.36-1.192m-61.68 6.756c-1.972.799-1.986.904-1.986 14.381 0 13.965.014 14.051 2.468 14.86 3.637 1.201 16.992-.051 20.914-1.96 10.446-5.084 9.997-22.765-.662-26.058-4.564-1.409-18.278-2.219-20.734-1.223m15.414 2.231c2.09.335 4.4.803 5.134 1.041 8.173 2.646 8.482 17.642.453 21.922-4.304 2.293-18.853 3.317-20.238 1.423-.747-1.021-.811-23.776-.069-24.518.697-.697 10.072-.613 14.72.132"/></g></svg>