<?xml version="1.0" standalone="no"?>
<!DOCTYPE svg PUBLIC "-//W3C//DTD SVG 20010904//EN"
 "http://www.w3.org/TR/2001/REC-SVG-20010904/DTD/svg10.dtd">
<svg version="1.0" xmlns="http://www.w3.org/2000/svg"
 width="700.000000pt" height="700.000000pt" viewBox="0 0 700.000000 700.000000"
 preserveAspectRatio="xMidYMid meet">
<metadata>
Created by potrace 1.11, written by Peter Selinger 2001-2013
</metadata>
<g transform="translate(0.000000,700.000000) scale(0.100000,-0.100000)"
fill="#000000" stroke="none">
<path d="M449 6561 l-24 -19 -5 -1544 c-3 -848 -3 -2219 0 -3045 l5 -1501 24
-26 24 -26 2836 1 c1560 1 2928 5 3040 8 l204 6 21 28 21 28 0 3031 0 3030
-28 24 -28 24 -3033 0 c-2972 0 -3034 0 -3057 -19z m1904 -198 c-211 -2 -555
-2 -765 0 -211 1 -39 2 382 2 421 0 593 -1 383 -2z m3125 0 c-203 -2 -533 -2
-735 0 -203 1 -37 2 367 2 404 0 570 -1 368 -2z m-700 -30 c-630 -2 -1665 -2
-2300 0 -634 1 -118 2 1147 2 1265 0 1784 -1 1153 -2z m-4131 -25 c-3 -8 -6
-5 -6 6 -1 11 2 17 5 13 3 -3 4 -12 1 -19z m216 15 l-182 -3 -4 -103 -3 -102
-2 108 -2 107 188 -2 187 -3 -182 -2z m5457 0 c0 -5 -28 -7 -62 -5 -113 5
-125 9 -30 10 50 1 92 -1 92 -5z m5 -5640 c-3 -10 -34 -12 -112 -11 l-108 2
108 3 107 4 2 2807 3 2807 3 -2800 c1 -1540 0 -2806 -3 -2812z m42 5150 c-1
-71 -3 -13 -3 127 0 140 2 198 3 128 2 -71 2 -185 0 -255z m-5730 -1215 c-1
-271 -2 -50 -2 492 0 542 1 763 2 493 2 -271 2 -715 0 -985z m30 -2100 c-1
-640 -2 -119 -2 1157 0 1276 1 1799 2 1163 2 -636 2 -1680 0 -2320z m3206
1695 c-7 -2 -19 -2 -25 0 -7 3 -2 5 12 5 14 0 19 -2 13 -5z m-721 -58 c141
-29 231 -94 269 -193 17 -47 20 -73 17 -147 -6 -143 -63 -243 -177 -310 -28
-16 -53 -36 -56 -43 -7 -18 45 -118 165 -316 120 -200 143 -243 135 -256 -3
-6 -30 -10 -60 -10 -50 0 -56 3 -85 38 -18 20 -70 102 -116 182 -165 283 -184
309 -229 321 -22 6 -79 9 -127 7 -132 -6 -128 2 -129 -237 -1 -108 -4 -221 -7
-251 l-7 -55 -48 -3 c-43 -3 -48 -1 -57 23 -11 29 -12 1179 -1 1230 4 19 14
32 31 37 39 12 407 -1 482 -17z m740 2 c4 -6 8 -86 9 -177 5 -628 15 -960 27
-972 10 -10 79 -14 275 -18 144 -3 268 -9 275 -13 16 -11 15 -72 -2 -86 -16
-14 -669 -11 -683 2 -12 13 -25 630 -20 961 5 289 5 290 28 309 25 20 76 17
91 -6z m45 -89 c-2 -13 -4 -3 -4 22 0 25 2 35 4 23 2 -13 2 -33 0 -45z m2430
-2400 c-1 -178 -2 -35 -2 317 0 352 1 497 2 323 2 -174 2 -462 0 -640z m-5730
-630 c-1 -95 -3 -18 -3 172 0 190 2 267 3 173 2 -95 2 -251 0 -345z m271 -361
l227 -3 -230 1 -230 0 0 230 -1 230 3 -227 3 -228 228 -3z m5445 -28 c-5 -5
-6 11 -3 34 4 41 5 41 8 8 2 -18 0 -37 -5 -42z m-5706 19 c-3 -7 -5 -2 -5 12
0 14 2 19 5 13 2 -7 2 -19 0 -25z m4175 -5 c-640 -2 -1684 -2 -2320 0 -636 1
-113 2 1163 2 1276 0 1797 -1 1157 -2z m-1114 -40 c-229 -2 -607 -2 -840 0
-233 1 -45 2 417 2 462 0 652 -1 423 -2z"/>
<path d="M2793 4051 c-17 -8 -23 -22 -28 -65 -11 -84 -2 -413 11 -426 23 -23
89 -29 199 -19 150 14 205 31 254 80 74 75 93 208 42 311 -28 58 -66 87 -140
105 -70 17 -308 27 -338 14z m234 -37 c-3 -3 -12 -4 -19 -1 -8 3 -5 6 6 6 11
1 17 -2 13 -5z"/>
</g>
</svg>
