<svg id="svg" version="1.1" width="400" height="400" viewBox="0 0 400 400" xmlns="http://www.w3.org/2000/svg" xmlns:xlink="http://www.w3.org/1999/xlink" ><g id="svgg"><path id="path0" d="M38.629 38.629 C 37.515 39.742,37.685 360.085,38.800 361.200 C 39.910 362.310,359.129 362.486,360.711 361.377 L 361.600 360.755 361.600 199.791 C 361.600 41.061,361.589 38.822,360.826 38.414 C 359.386 37.643,39.401 37.856,38.629 38.629 M176.174 159.804 C 183.755 160.600,190.188 162.988,193.038 166.064 C 202.810 176.606,199.905 194.607,187.304 201.601 C 185.402 202.657,184.935 203.557,185.623 204.843 C 185.880 205.323,189.595 211.487,193.879 218.540 C 205.424 237.549,205.432 237.600,197.000 237.600 C 191.269 237.600,191.943 238.350,181.763 220.655 C 172.843 205.152,173.930 206.200,166.779 206.200 C 159.259 206.200,160.000 204.596,160.000 220.869 C 160.000 237.791,160.076 237.591,153.660 237.598 C 147.625 237.604,148.000 240.187,148.000 198.600 C 148.000 160.560,147.959 161.301,150.152 159.964 C 151.789 158.966,167.288 158.871,176.174 159.804 M222.964 159.759 C 225.052 160.632,224.989 159.683,225.200 193.439 C 225.364 219.786,225.498 225.595,225.949 226.139 C 226.440 226.730,227.948 226.801,240.149 226.810 C 258.188 226.822,258.443 226.893,258.729 231.945 C 259.058 237.763,259.706 237.600,236.200 237.600 C 215.941 237.600,215.028 237.520,214.032 235.660 C 213.732 235.099,213.600 223.770,213.600 198.480 L 213.600 162.108 214.455 161.021 C 215.914 159.167,220.071 158.550,222.964 159.759 M160.480 170.480 C 159.738 171.222,159.802 193.977,160.549 194.998 C 161.934 196.892,176.483 195.868,180.787 193.575 C 188.816 189.295,188.507 174.299,180.334 171.653 C 175.830 170.194,161.606 169.354,160.480 170.480 " stroke="none" fill="#2c84bb" fill-rule="evenodd"></path><path id="path1" d="M28.357 23.991 C 25.661 24.341,25.392 24.490,24.497 26.125 C 23.498 27.952,23.402 372.228,24.400 374.164 C 24.730 374.804,25.508 375.704,26.129 376.164 L 27.259 377.000 200.129 377.000 C 370.998 377.000,373.015 376.991,374.294 376.218 C 375.005 375.787,375.905 374.797,376.294 374.018 C 377.301 371.997,377.406 28.598,376.400 26.620 C 376.070 25.971,375.170 25.071,374.400 24.620 L 373.000 23.800 201.800 23.750 C 107.640 23.722,29.591 23.831,28.357 23.991 M361.949 36.442 C 362.646 36.685,363.393 37.213,363.608 37.616 C 364.421 39.134,364.115 361.769,363.300 362.775 C 362.915 363.251,361.880 363.806,361.000 364.010 C 359.208 364.425,40.569 364.467,38.600 364.053 C 35.748 363.452,36.001 379.395,36.001 200.160 C 36.000 32.567,35.950 37.335,37.721 36.479 C 38.993 35.864,360.186 35.828,361.949 36.442 " stroke="none" fill="#030405" fill-rule="evenodd"></path><path id="path2" d="M151.756 161.592 C 150.240 162.204,150.201 163.027,150.079 197.200 C 149.932 238.395,149.653 235.605,153.929 235.594 C 157.648 235.584,157.374 236.703,157.600 220.624 L 157.800 206.417 158.909 205.309 C 160.944 203.274,172.546 203.435,174.810 205.528 C 175.447 206.118,179.499 212.720,183.814 220.200 C 193.011 236.142,192.554 235.600,196.808 235.600 C 202.190 235.600,202.556 236.808,191.793 219.003 C 181.288 201.623,181.549 202.435,185.747 200.167 C 192.698 196.411,196.800 189.290,196.800 180.978 C 196.800 169.118,189.454 162.777,174.353 161.603 C 168.286 161.132,152.914 161.124,151.756 161.592 M217.603 161.557 C 215.554 162.127,215.598 161.262,215.702 199.132 C 215.798 233.587,215.819 234.479,216.576 235.032 C 217.537 235.735,254.314 235.888,255.609 235.195 C 256.453 234.743,257.018 232.516,256.612 231.237 C 255.957 229.175,256.149 229.200,241.271 229.198 C 232.706 229.196,226.814 229.033,225.868 228.770 C 223.094 228.000,223.201 229.375,223.194 194.313 C 223.191 177.091,223.052 162.786,222.886 162.525 C 222.191 161.432,219.696 160.975,217.603 161.557 M174.455 168.403 C 176.356 168.620,179.085 169.161,180.520 169.604 C 191.179 172.897,191.628 190.578,181.182 195.662 C 175.334 198.509,159.815 198.919,158.297 196.268 C 157.510 194.894,157.592 170.375,158.386 169.417 C 159.596 167.958,166.678 167.511,174.455 168.403 " stroke="none" fill="#ffffff" fill-rule="evenodd"></path><path id="path3" d="M37.721 36.479 C 35.950 37.335,36.000 32.567,36.001 200.160 C 36.001 379.395,35.748 363.452,38.600 364.053 C 40.569 364.467,359.208 364.425,361.000 364.010 C 361.880 363.806,362.915 363.251,363.300 362.775 C 364.115 361.769,364.421 39.134,363.608 37.616 C 363.393 37.213,362.646 36.685,361.949 36.442 C 360.186 35.828,38.993 35.864,37.721 36.479 M360.826 38.414 C 361.589 38.822,361.600 41.061,361.600 199.791 L 361.600 360.755 360.711 361.377 C 359.129 362.486,39.910 362.310,38.800 361.200 C 37.685 360.085,37.515 39.742,38.629 38.629 C 39.401 37.856,359.386 37.643,360.826 38.414 " stroke="none" fill="#2c84bb" fill-rule="evenodd"></path><path id="path4" d="M150.152 159.964 C 147.959 161.301,148.000 160.560,148.000 198.600 C 148.000 240.187,147.625 237.604,153.660 237.598 C 160.076 237.591,160.000 237.791,160.000 220.869 C 160.000 204.596,159.259 206.200,166.779 206.200 C 173.930 206.200,172.843 205.152,181.763 220.655 C 191.943 238.350,191.269 237.600,197.000 237.600 C 205.432 237.600,205.424 237.549,193.879 218.540 C 189.595 211.487,185.880 205.323,185.623 204.843 C 184.935 203.557,185.402 202.657,187.304 201.601 C 199.905 194.607,202.810 176.606,193.038 166.064 C 190.188 162.988,183.755 160.600,176.174 159.804 C 167.288 158.871,151.789 158.966,150.152 159.964 M216.155 159.592 C 215.691 159.780,214.926 160.423,214.455 161.021 L 213.600 162.108 213.600 198.480 C 213.600 223.770,213.732 235.099,214.032 235.660 C 215.028 237.520,215.941 237.600,236.200 237.600 C 259.706 237.600,259.058 237.763,258.729 231.945 C 258.443 226.893,258.188 226.822,240.149 226.810 C 227.948 226.801,226.440 226.730,225.949 226.139 C 225.498 225.595,225.364 219.786,225.200 193.439 C 225.090 175.817,224.843 161.157,224.651 160.859 C 223.745 159.454,218.451 158.665,216.155 159.592 M174.353 161.603 C 189.454 162.777,196.800 169.118,196.800 180.978 C 196.800 189.290,192.698 196.411,185.747 200.167 C 181.549 202.435,181.288 201.623,191.793 219.003 C 202.556 236.808,202.190 235.600,196.808 235.600 C 192.554 235.600,193.011 236.142,183.814 220.200 C 179.499 212.720,175.447 206.118,174.810 205.528 C 172.546 203.435,160.944 203.274,158.909 205.309 L 157.800 206.417 157.600 220.624 C 157.374 236.703,157.648 235.584,153.929 235.594 C 149.653 235.605,149.932 238.395,150.079 197.200 C 150.201 163.027,150.240 162.204,151.756 161.592 C 152.914 161.124,168.286 161.132,174.353 161.603 M221.466 161.625 C 223.232 162.296,223.187 161.462,223.194 194.313 C 223.201 229.375,223.094 228.000,225.868 228.770 C 226.814 229.033,232.706 229.196,241.271 229.198 C 256.149 229.200,255.957 229.175,256.612 231.237 C 257.018 232.516,256.453 234.743,255.609 235.195 C 254.314 235.888,217.537 235.735,216.576 235.032 C 215.595 234.315,215.141 164.710,216.106 162.817 C 216.843 161.370,219.336 160.815,221.466 161.625 M159.786 168.381 C 157.814 169.180,157.800 169.285,157.800 182.762 C 157.800 196.727,157.814 196.813,160.268 197.622 C 163.905 198.823,177.260 197.571,181.182 195.662 C 191.628 190.578,191.179 172.897,180.520 169.604 C 175.956 168.195,162.242 167.385,159.786 168.381 M175.200 170.612 C 177.290 170.947,179.600 171.415,180.334 171.653 C 188.507 174.299,188.816 189.295,180.787 193.575 C 176.483 195.868,161.934 196.892,160.549 194.998 C 159.802 193.977,159.738 171.222,160.480 170.480 C 161.177 169.783,170.552 169.867,175.200 170.612 " stroke="none" fill="#000000" fill-rule="evenodd"></path></g></svg>